<svg width="20" height="20" viewBox="0 0 20 20" fill="none" xmlns="http://www.w3.org/2000/svg">
<path d="M14.7558 4.41086C14.912 4.56713 14.9998 4.77906 14.9998 5.00003C14.9998 5.221 14.912 5.43292 14.7558 5.58919L10.345 10L14.7558 14.4109C14.9076 14.568 14.9916 14.7785 14.9897 14.997C14.9878 15.2155 14.9002 15.4245 14.7457 15.579C14.5912 15.7335 14.3821 15.8212 14.1637 15.8231C13.9452 15.825 13.7347 15.741 13.5775 15.5892L8.57748 10.5892C8.42126 10.4329 8.3335 10.221 8.3335 10C8.3335 9.77906 8.42126 9.56713 8.57748 9.41086L13.5775 4.41086C13.7338 4.25463 13.9457 4.16687 14.1667 4.16687C14.3876 4.16687 14.5995 4.25463 14.7558 4.41086ZM9.75582 4.41086C9.91204 4.56713 9.99981 4.77906 9.99981 5.00003C9.99981 5.221 9.91204 5.43292 9.75582 5.58919L5.34498 10L9.75582 14.4109C9.90762 14.568 9.99161 14.7785 9.98971 14.997C9.98781 15.2155 9.90017 15.4245 9.74567 15.579C9.59116 15.7335 9.38215 15.8212 9.16365 15.8231C8.94515 15.825 8.73465 15.741 8.57748 15.5892L3.57748 10.5892C3.42126 10.4329 3.3335 10.221 3.3335 10C3.3335 9.77906 3.42126 9.56713 3.57748 9.41086L8.57748 4.41086C8.73376 4.25463 8.94568 4.16687 9.16665 4.16687C9.38762 4.16687 9.59954 4.25463 9.75582 4.41086Z" fill="white"/>
</svg>
