<svg width="184" height="36" viewBox="0 0 184 36" fill="none" xmlns="http://www.w3.org/2000/svg">
<g clip-path="url(#clip0_888_251)">
<path fill-rule="evenodd" clip-rule="evenodd" d="M52.8431 0C50.8124 0 48.8649 0.806703 47.4289 2.24264L40.5 9.17153V12.3431C40.5 14.5839 41.4625 16.5998 42.9966 18C41.4625 19.4002 40.5 21.4161 40.5 23.6568V26.8284L47.4289 33.7574C48.8649 35.1933 50.8124 36 52.8431 36C55.0839 36 57.0998 35.0375 58.5 33.5034C59.9002 35.0375 61.9161 36 64.1569 36C66.1876 36 68.1351 35.1933 69.5711 33.7574L76.5 26.8284V23.6568C76.5 21.4161 75.5375 19.4002 74.0034 18C75.5375 16.5998 76.5 14.5839 76.5 12.3431V9.17153L69.5711 2.24264C68.1351 0.806703 66.1876 0 64.1569 0C61.9161 0 59.9002 0.962493 58.5 2.49661C57.0998 0.962493 55.0839 0 52.8431 0ZM63.6829 18C63.5966 17.9212 63.5119 17.8403 63.4289 17.7573L58.5 12.8284L53.5711 17.7573C53.4881 17.8403 53.4034 17.9212 53.3171 18C53.4034 18.0787 53.4881 18.1596 53.5711 18.2426L58.5 23.1716L63.4289 18.2426C63.5119 18.1596 63.5966 18.0787 63.6829 18ZM60.5 26.8284V28.3431C60.5 30.3627 62.1373 32 64.1569 32C65.1267 32 66.0569 31.6147 66.7426 30.9289L72.5 25.1715V23.6568C72.5 21.6372 70.8628 20 68.8432 20C67.8733 20 66.9432 20.3853 66.2574 21.0711L60.5 26.8284ZM56.5 26.8284L50.7426 21.0711C50.0568 20.3853 49.1267 20 48.1569 20C46.1372 20 44.5 21.6372 44.5 23.6568V25.1715L50.2573 30.9289C50.9431 31.6147 51.8733 32 52.8431 32C54.8627 32 56.5 30.3627 56.5 28.3431V26.8284ZM56.5 7.65686V9.17153L50.7426 14.9289C50.0568 15.6147 49.1267 16 48.1569 16C46.1372 16 44.5 14.3627 44.5 12.3431V10.8284L50.2573 5.07107C50.9431 4.38527 51.8733 4 52.8431 4C54.8627 4 56.5 5.63723 56.5 7.65686ZM66.2574 14.9289L60.5 9.17153V7.65686C60.5 5.63723 62.1373 4 64.1569 4C65.1267 4 66.0569 4.38527 66.7426 5.07107L72.5 10.8284V12.3431C72.5 14.3627 70.8628 16 68.8432 16C67.8733 16 66.9432 15.6147 66.2574 14.9289Z" fill="#FF630B"/>
</g>
<path d="M89.46 23.5V12.3H91.412V21.548H96.076V23.5H89.46ZM102.48 23.708C101.723 23.708 101.011 23.5587 100.344 23.26C99.6773 22.956 99.0907 22.5373 98.584 22.004C98.0773 21.4707 97.68 20.8547 97.392 20.156C97.104 19.452 96.96 18.7 96.96 17.9C96.96 17.1 97.104 16.3507 97.392 15.652C97.68 14.948 98.0773 14.3293 98.584 13.796C99.0907 13.2627 99.6773 12.8467 100.344 12.548C101.011 12.244 101.723 12.092 102.48 12.092C103.243 12.092 103.957 12.244 104.624 12.548C105.291 12.8467 105.877 13.2627 106.384 13.796C106.891 14.3293 107.285 14.948 107.568 15.652C107.856 16.3507 108 17.1 108 17.9C108 18.7 107.856 19.452 107.568 20.156C107.285 20.8547 106.891 21.4707 106.384 22.004C105.877 22.5373 105.291 22.956 104.624 23.26C103.957 23.5587 103.243 23.708 102.48 23.708ZM102.48 21.756C102.971 21.756 103.432 21.6547 103.864 21.452C104.296 21.2493 104.675 20.972 105 20.62C105.331 20.2627 105.587 19.852 105.768 19.388C105.955 18.924 106.048 18.428 106.048 17.9C106.048 17.372 105.955 16.876 105.768 16.412C105.581 15.9427 105.323 15.532 104.992 15.18C104.667 14.828 104.288 14.5507 103.856 14.348C103.429 14.1453 102.971 14.044 102.48 14.044C101.989 14.044 101.528 14.1453 101.096 14.348C100.664 14.5507 100.283 14.8307 99.952 15.188C99.6267 15.54 99.3707 15.948 99.184 16.412C99.0027 16.876 98.912 17.372 98.912 17.9C98.912 18.4333 99.0053 18.932 99.192 19.396C99.3787 19.86 99.6347 20.2707 99.96 20.628C100.291 20.98 100.669 21.2573 101.096 21.46C101.528 21.6573 101.989 21.756 102.48 21.756ZM110.172 23.5V12.3H114.468C115.076 12.3 115.625 12.452 116.116 12.756C116.606 13.06 116.996 13.468 117.284 13.98C117.572 14.4867 117.716 15.0493 117.716 15.668C117.716 16.1747 117.622 16.6413 117.436 17.068C117.254 17.4893 116.998 17.8547 116.668 18.164C116.342 18.4733 115.966 18.708 115.54 18.868L118.22 23.5H115.972L113.38 19.044H112.124V23.5H110.172ZM112.124 17.092H114.244C114.521 17.092 114.774 17.0227 115.004 16.884C115.233 16.7453 115.417 16.5587 115.556 16.324C115.694 16.0893 115.764 15.828 115.764 15.54C115.764 15.2467 115.694 14.9827 115.556 14.748C115.417 14.5133 115.233 14.3267 115.004 14.188C114.774 14.0493 114.521 13.98 114.244 13.98H112.124V17.092ZM120.061 23.5V12.3H127.085V14.252H122.013V16.524H126.037V18.476H122.013V21.548H127.085V23.5H120.061ZM129.162 23.5L131.338 12.3H132.954L135.682 19.476L138.41 12.3H140.026L142.202 23.5H140.21L138.866 16.572L136.346 23.244H135.01L132.49 16.572L131.154 23.5H129.162Z" fill="#FF630B"/>
<defs>
<clipPath id="clip0_888_251">
<rect width="36" height="36" fill="white" transform="translate(40.5)"/>
</clipPath>
</defs>
</svg>
